
   _  _ _  _ _  _ 
   |  | |  | |  | 
   |/\| |/\| |/\|,
   ~  ~ ~  ~ ~  ~~
                  
   _, __,  _, ___,
  / ` |_) /_\ ` / 
  \ , | \ | |  /  
   ~  ~ ~ ~ ~ ~~~ 
                  
 , _    ___  _, __,
 \ |     |  / \ |_)
  \| ~~  |  \ / | \
   )     ~   ~  ~ ~
  ~'               
  __, __, _, _ ___ 
  |_) |_  |\ |  |  
  | \ |   | \|  | ,
  ~ ~ ~~~ ~  ~  ~ ~
                   
     _,  _, _, _
    / ` / \ |\/|
    \ , \ / |  |
     ~   ~  ~  ~

 Description

General
Complete name: Chick Magnet.2011.DVDrip.XviD.avi
Format: AVI
Format/Info: Audio Video Interleave
Format profile: OpenDML
File size: 1.99 GiB
Duration: 1h 28mn
Overall bit rate: 3 237 Kbps
Writing application: VirtualDubMod 1.5.4.1 (build 2178/release)
Writing library: VirtualDubMod build 2178/release

Video
ID: 0
Format: MPEG-4 Visual
Format profile: Advanced Simple@L5
Format settings, BVOP: No
Format settings, QPel: No
Format settings, GMC: No warppoints
Format settings, Matrix: Custom
Codec ID: XVID
Codec ID/Hint: XviD
Duration: 1h 28mn
Bit rate: 3 036 Kbps
Width: 720 pixels
Height: 416 pixels
Display aspect ratio: 16:9
Frame rate: 23.976 fps
Color space: YUV
Chroma subsampling: 4:2:0
Bit depth: 8 bits
Scan type: Progressive
Bits/(Pixel*Frame): 0.423
Stream size: 1.87 GiB (94%)
Writing library: XviD 1.2.0.dev47 (UTC 2006-11-01)

Audio
ID: 1
Format: AC-3
Format/Info: Audio Coding 3
Mode extension: CM (complete main)
Codec ID: 2000
Duration: 1h 28mn
Bit rate mode: Constant
Bit rate: 192 Kbps
Channel(s): 2 channels
Channel positions: Front: L R
Sampling rate: 48.0 KHz
Bit depth: 16 bits
Stream size: 121 MiB (6%)
Alignment: Split accross interleaves
Interleave, duration: 96 ms (2.30 video frames)
Interleave, preload duration: 96 ms
Language: English 

CRAZY-TORRENT..COM